<?xml version="1.0" encoding="UTF-8" standalone="no"?>
<!DOCTYPE svg PUBLIC "-//W3C//DTD SVG 1.1//EN"
 "http://www.w3.org/Graphics/SVG/1.1/DTD/svg11.dtd">
<!-- Generated by graphviz version 2.36.0 (20140111.2315)
 -->
<!-- Title: db_blocking_keys Pages: 1 -->
<svg width="510pt" height="162pt"
     viewBox="0.00 0.00 510.00 162.00" xmlns="http://www.w3.org/2000/svg">
<g id="graph0" class="graph" transform="scale(1 1) rotate(0) translate(4 158)">
<title>db_blocking_keys</title>
<polygon fill="white" stroke="none" points="-4,4 -4,-158 506,-158 506,4 -4,4"/>
<!-- blocking_keys -->
<g id="node1" class="node"><title>blocking_keys</title>
<polygon fill="#a8e270" stroke="black" points="0.5,-0 0.5,-138 111.5,-138 111.5,-0 0.5,-0"/>
<text text-anchor="middle" x="56" y="-122.8" font-family="'/usr/share/fonts/truetype/wqy/wqy-microhei.ttc'" font-size="14.00">blocking_keys</text>
<polyline fill="none" stroke="black" points="0.5,-115 111.5,-115 "/>
<text text-anchor="middle" x="56" y="-99.8" font-family="'/usr/share/fonts/truetype/wqy/wqy-microhei.ttc'" font-size="14.00">key1</text>
<polyline fill="none" stroke="black" points="0.5,-92 111.5,-92 "/>
<text text-anchor="middle" x="56" y="-76.8" font-family="'/usr/share/fonts/truetype/wqy/wqy-microhei.ttc'" font-size="14.00">key2</text>
<polyline fill="none" stroke="black" points="0.5,-69 111.5,-69 "/>
<text text-anchor="middle" x="56" y="-53.8" font-family="'/usr/share/fonts/truetype/wqy/wqy-microhei.ttc'" font-size="14.00">key3</text>
<polyline fill="none" stroke="black" points="0.5,-46 111.5,-46 "/>
<text text-anchor="middle" x="56" y="-30.8" font-family="'/usr/share/fonts/truetype/wqy/wqy-microhei.ttc'" font-size="14.00">...</text>
<polyline fill="none" stroke="black" points="0.5,-23 111.5,-23 "/>
<text text-anchor="middle" x="56" y="-7.8" font-family="'/usr/share/fonts/truetype/wqy/wqy-microhei.ttc'" font-size="14.00">keyN</text>
</g>
<!-- client2 -->
<g id="node4" class="node"><title>client2</title>
<polygon fill="#95bbe3" stroke="black" points="148.5,-118 148.5,-154 211.5,-154 211.5,-118 148.5,-118"/>
<text text-anchor="middle" x="180" y="-132.3" font-family="'/usr/share/fonts/truetype/wqy/wqy-microhei.ttc'" font-size="14.00">client2</text>
</g>
<!-- blocking_keys&#45;&gt;client2 -->
<g id="edge1" class="edge"><title>blocking_keys:key1&#45;&gt;client2</title>
<path fill="none" stroke="black" stroke-width="2" d="M112,-104C123.547,-104 135.217,-107.918 145.509,-113.012"/>
<polygon fill="black" stroke="black" stroke-width="2" points="144.078,-116.218 154.531,-117.943 147.435,-110.076 144.078,-116.218"/>
</g>
<!-- client7 -->
<g id="node6" class="node"><title>client7</title>
<polygon fill="#95bbe3" stroke="black" points="148.5,-63 148.5,-99 211.5,-99 211.5,-63 148.5,-63"/>
<text text-anchor="middle" x="180" y="-77.3" font-family="'/usr/share/fonts/truetype/wqy/wqy-microhei.ttc'" font-size="14.00">client7</text>
</g>
<!-- blocking_keys&#45;&gt;client7 -->
<g id="edge5" class="edge"><title>blocking_keys:key2&#45;&gt;client7</title>
<path fill="none" stroke="black" stroke-width="2" d="M112,-81C120.435,-81 129.467,-81 138.082,-81"/>
<polygon fill="black" stroke="black" stroke-width="2" points="138.314,-84.5001 148.314,-81 138.314,-77.5001 138.314,-84.5001"/>
</g>
<!-- client3 -->
<g id="node8" class="node"><title>client3</title>
<polygon fill="#95bbe3" stroke="black" points="148.5,-8 148.5,-44 211.5,-44 211.5,-8 148.5,-8"/>
<text text-anchor="middle" x="180" y="-22.3" font-family="'/usr/share/fonts/truetype/wqy/wqy-microhei.ttc'" font-size="14.00">client3</text>
</g>
<!-- blocking_keys&#45;&gt;client3 -->
<g id="edge7" class="edge"><title>blocking_keys:key3&#45;&gt;client3</title>
<path fill="none" stroke="black" stroke-width="2" d="M112,-57C123.187,-57 134.533,-53.3965 144.631,-48.6467"/>
<polygon fill="black" stroke="black" stroke-width="2" points="146.252,-51.7488 153.512,-44.0328 143.025,-45.537 146.252,-51.7488"/>
</g>
<!-- client1 -->
<g id="node2" class="node"><title>client1</title>
<polygon fill="#95bbe3" stroke="black" points="348.5,-118 348.5,-154 411.5,-154 411.5,-118 348.5,-118"/>
<text text-anchor="middle" x="380" y="-132.3" font-family="'/usr/share/fonts/truetype/wqy/wqy-microhei.ttc'" font-size="14.00">client1</text>
</g>
<!-- null_1 -->
<g id="node5" class="node"><title>null_1</title>
<polygon fill="lightgrey" stroke="none" points="502,-154 448,-154 448,-118 502,-118 502,-154"/>
<text text-anchor="middle" x="475" y="-132.3" font-family="'/usr/share/fonts/truetype/wqy/wqy-microhei.ttc'" font-size="14.00">NULL</text>
</g>
<!-- client1&#45;&gt;null_1 -->
<g id="edge4" class="edge"><title>client1&#45;&gt;null_1</title>
<path fill="none" stroke="black" stroke-width="2" d="M411.709,-136C420.06,-136 429.181,-136 437.804,-136"/>
<polygon fill="black" stroke="black" stroke-width="2" points="437.991,-139.5 447.991,-136 437.991,-132.5 437.991,-139.5"/>
</g>
<!-- client5 -->
<g id="node3" class="node"><title>client5</title>
<polygon fill="#95bbe3" stroke="black" points="248.5,-118 248.5,-154 311.5,-154 311.5,-118 248.5,-118"/>
<text text-anchor="middle" x="280" y="-132.3" font-family="'/usr/share/fonts/truetype/wqy/wqy-microhei.ttc'" font-size="14.00">client5</text>
</g>
<!-- client5&#45;&gt;client1 -->
<g id="edge3" class="edge"><title>client5&#45;&gt;client1</title>
<path fill="none" stroke="black" stroke-width="2" d="M311.739,-136C320.131,-136 329.357,-136 338.214,-136"/>
<polygon fill="black" stroke="black" stroke-width="2" points="338.37,-139.5 348.37,-136 338.37,-132.5 338.37,-139.5"/>
</g>
<!-- client2&#45;&gt;client5 -->
<g id="edge2" class="edge"><title>client2&#45;&gt;client5</title>
<path fill="none" stroke="black" stroke-width="2" d="M211.739,-136C220.131,-136 229.357,-136 238.214,-136"/>
<polygon fill="black" stroke="black" stroke-width="2" points="238.37,-139.5 248.37,-136 238.37,-132.5 238.37,-139.5"/>
</g>
<!-- null_2 -->
<g id="node7" class="node"><title>null_2</title>
<polygon fill="lightgrey" stroke="none" points="307,-99 253,-99 253,-63 307,-63 307,-99"/>
<text text-anchor="middle" x="280" y="-77.3" font-family="'/usr/share/fonts/truetype/wqy/wqy-microhei.ttc'" font-size="14.00">NULL</text>
</g>
<!-- client7&#45;&gt;null_2 -->
<g id="edge6" class="edge"><title>client7&#45;&gt;null_2</title>
<path fill="none" stroke="black" stroke-width="2" d="M211.739,-81C221.571,-81 232.548,-81 242.735,-81"/>
<polygon fill="black" stroke="black" stroke-width="2" points="242.985,-84.5001 252.985,-81 242.985,-77.5001 242.985,-84.5001"/>
</g>
<!-- client4 -->
<g id="node9" class="node"><title>client4</title>
<polygon fill="#95bbe3" stroke="black" points="248.5,-8 248.5,-44 311.5,-44 311.5,-8 248.5,-8"/>
<text text-anchor="middle" x="280" y="-22.3" font-family="'/usr/share/fonts/truetype/wqy/wqy-microhei.ttc'" font-size="14.00">client4</text>
</g>
<!-- client3&#45;&gt;client4 -->
<g id="edge8" class="edge"><title>client3&#45;&gt;client4</title>
<path fill="none" stroke="black" stroke-width="2" d="M211.739,-26C220.131,-26 229.357,-26 238.214,-26"/>
<polygon fill="black" stroke="black" stroke-width="2" points="238.37,-29.5001 248.37,-26 238.37,-22.5001 238.37,-29.5001"/>
</g>
<!-- client6 -->
<g id="node10" class="node"><title>client6</title>
<polygon fill="#95bbe3" stroke="black" points="348.5,-8 348.5,-44 411.5,-44 411.5,-8 348.5,-8"/>
<text text-anchor="middle" x="380" y="-22.3" font-family="'/usr/share/fonts/truetype/wqy/wqy-microhei.ttc'" font-size="14.00">client6</text>
</g>
<!-- client4&#45;&gt;client6 -->
<g id="edge9" class="edge"><title>client4&#45;&gt;client6</title>
<path fill="none" stroke="black" stroke-width="2" d="M311.739,-26C320.131,-26 329.357,-26 338.214,-26"/>
<polygon fill="black" stroke="black" stroke-width="2" points="338.37,-29.5001 348.37,-26 338.37,-22.5001 338.37,-29.5001"/>
</g>
<!-- null_3 -->
<g id="node11" class="node"><title>null_3</title>
<polygon fill="lightgrey" stroke="none" points="502,-44 448,-44 448,-8 502,-8 502,-44"/>
<text text-anchor="middle" x="475" y="-22.3" font-family="'/usr/share/fonts/truetype/wqy/wqy-microhei.ttc'" font-size="14.00">NULL</text>
</g>
<!-- client6&#45;&gt;null_3 -->
<g id="edge10" class="edge"><title>client6&#45;&gt;null_3</title>
<path fill="none" stroke="black" stroke-width="2" d="M411.709,-26C420.06,-26 429.181,-26 437.804,-26"/>
<polygon fill="black" stroke="black" stroke-width="2" points="437.991,-29.5001 447.991,-26 437.991,-22.5001 437.991,-29.5001"/>
</g>
</g>
</svg>
